<svg width="49" height="38" viewBox="0 0 49 38" fill="none" xmlns="http://www.w3.org/2000/svg">
<path d="M14.464 9.968C14.464 10.1813 14.4107 10.768 14.304 11.728C14.0693 14.0747 13.952 16.4533 13.952 18.864C13.952 20.976 13.984 22.5867 14.048 23.696C14.112 24.8053 14.272 25.6587 14.528 26.256C14.784 26.832 15.1787 27.12 15.712 27.12C16.736 27.12 17.248 27.4613 17.248 28.144C17.248 28.592 17.024 28.976 16.576 29.296C16.128 29.5947 15.6373 29.744 15.104 29.744C14.464 29.744 13.8667 29.5947 13.312 29.296C12.7573 28.9973 12.32 28.5387 12 27.92C11.552 28.5813 10.9013 29.1147 10.048 29.52C9.216 29.904 8.40533 30.096 7.616 30.096C6.4 30.096 5.32267 29.84 4.384 29.328C3.44533 28.816 2.72 28.1227 2.208 27.248C1.696 26.352 1.44 25.3707 1.44 24.304C1.44 23.28 1.55733 22.2987 1.792 21.36C2.048 20.4 2.38933 19.6107 2.816 18.992C3.392 18.1813 4.16 17.5413 5.12 17.072C6.10133 16.5813 7.06133 16.336 8 16.336C8.576 16.336 9.12 16.4533 9.632 16.688C10.144 16.9013 10.592 17.168 10.976 17.488C10.976 16.0587 10.9653 15.1627 10.944 14.8V14.128C10.944 12.144 11.072 10.6933 11.328 9.776C11.5627 8.88 12.128 8.432 13.024 8.432C13.5147 8.432 13.8773 8.53867 14.112 8.752C14.3467 8.96533 14.464 9.37067 14.464 9.968ZM4.608 24.24C4.608 25.2213 4.88533 26.0107 5.44 26.608C6.016 27.2053 6.69867 27.504 7.488 27.504C8.61867 27.504 9.45067 27.152 9.984 26.448C10.5387 25.744 10.816 24.8373 10.816 23.728L10.784 20.56C9.952 19.6427 9.088 19.184 8.192 19.184C7.57333 19.184 6.98667 19.344 6.432 19.664C5.89867 19.9627 5.472 20.4213 5.152 21.04C4.78933 21.744 4.608 22.8107 4.608 24.24ZM27.0003 28.24C27.0003 28.7733 26.7869 29.2747 26.3603 29.744C25.9336 30.192 25.4643 30.416 24.9523 30.416C24.3549 30.416 23.8109 30.256 23.3203 29.936C22.8296 29.5947 22.5843 29.168 22.5843 28.656C22.5843 27.8453 22.7336 27.248 23.0323 26.864C23.3523 26.48 23.8216 26.288 24.4403 26.288C25.1656 26.288 25.7736 26.4693 26.2643 26.832C26.7549 27.1733 27.0003 27.6427 27.0003 28.24ZM34.3952 24.24C34.3952 23.0453 34.4059 22.1387 34.4272 21.52L34.4592 18.48C34.4592 17.2427 34.4272 15.888 34.3632 14.416C34.3419 13.968 34.2672 13.3493 34.1392 12.56C33.9686 11.3653 33.8832 10.4693 33.8832 9.872C33.8832 8.89067 34.3739 8.4 35.3552 8.4C35.9739 8.4 36.4112 8.57067 36.6672 8.912C36.9446 9.232 37.1366 9.744 37.2432 10.448C37.4566 11.92 37.5633 13.648 37.5633 15.632C37.5633 16.2293 37.5419 17.1253 37.4992 18.32C37.9046 17.68 38.4272 17.1787 39.0672 16.816C39.7286 16.4533 40.3792 16.272 41.0192 16.272C42.8753 16.272 44.4753 17.04 45.8193 18.576C46.1819 19.1093 46.5019 19.7493 46.7793 20.496C47.0779 21.2213 47.2273 21.8507 47.2273 22.384C47.2273 23.3227 47.1206 24.1867 46.9073 24.976C46.7153 25.7653 46.3633 26.5333 45.8513 27.28C45.3393 28.0267 44.6886 28.6347 43.8993 29.104C43.1313 29.5733 42.2353 29.808 41.2113 29.808C40.3153 29.808 39.5046 29.6267 38.7793 29.264C38.0752 28.9013 37.5099 28.4213 37.0833 27.824C36.9766 28.3573 36.7419 28.8907 36.3793 29.424C36.0166 29.936 35.6006 30.192 35.1312 30.192C34.7472 30.192 34.4272 30.096 34.1712 29.904C33.9152 29.6907 33.7872 29.3813 33.7872 28.976C33.7872 28.6773 33.8512 28.304 33.9792 27.856C34.1072 27.2373 34.2032 26.672 34.2672 26.16C34.3526 25.6267 34.3952 24.9867 34.3952 24.24ZM40.4113 27.152C41.4566 27.152 42.3312 26.7893 43.0352 26.064C43.7393 25.3173 44.0913 24.3147 44.0913 23.056C44.0913 21.904 43.7819 20.912 43.1632 20.08C42.9499 19.8027 42.6406 19.5787 42.2353 19.408C41.8513 19.2373 41.4673 19.152 41.0833 19.152C40.1873 19.152 39.4299 19.4187 38.8112 19.952C38.1926 20.464 37.8406 21.1787 37.7552 22.096C37.6699 23.3333 37.6272 24.4 37.6272 25.296C37.8832 25.7867 38.2673 26.224 38.7793 26.608C39.3126 26.9707 39.8566 27.152 40.4113 27.152Z" fill="white"/>
</svg>
