<svg width="50" height="50" viewBox="0 0 50 50" fill="none" xmlns="http://www.w3.org/2000/svg">
<rect width="50" height="50" rx="6" fill="black"/>
<path d="M16.848 17.976C16.848 18.136 16.808 18.576 16.728 19.296C16.552 21.056 16.464 22.84 16.464 24.648C16.464 26.232 16.488 27.44 16.536 28.272C16.584 29.104 16.704 29.744 16.896 30.192C17.088 30.624 17.384 30.84 17.784 30.84C18.552 30.84 18.936 31.096 18.936 31.608C18.936 31.944 18.768 32.232 18.432 32.472C18.096 32.696 17.728 32.808 17.328 32.808C16.848 32.808 16.4 32.696 15.984 32.472C15.568 32.248 15.24 31.904 15 31.44C14.664 31.936 14.176 32.336 13.536 32.64C12.912 32.928 12.304 33.072 11.712 33.072C10.8 33.072 9.992 32.88 9.288 32.496C8.584 32.112 8.04 31.592 7.656 30.936C7.272 30.264 7.08 29.528 7.08 28.728C7.08 27.96 7.168 27.224 7.344 26.52C7.536 25.8 7.792 25.208 8.112 24.744C8.544 24.136 9.12 23.656 9.84 23.304C10.576 22.936 11.296 22.752 12 22.752C12.432 22.752 12.84 22.84 13.224 23.016C13.608 23.176 13.944 23.376 14.232 23.616C14.232 22.544 14.224 21.872 14.208 21.6V21.096C14.208 19.608 14.304 18.52 14.496 17.832C14.672 17.16 15.096 16.824 15.768 16.824C16.136 16.824 16.408 16.904 16.584 17.064C16.76 17.224 16.848 17.528 16.848 17.976ZM9.456 28.68C9.456 29.416 9.664 30.008 10.08 30.456C10.512 30.904 11.024 31.128 11.616 31.128C12.464 31.128 13.088 30.864 13.488 30.336C13.904 29.808 14.112 29.128 14.112 28.296L14.088 25.92C13.464 25.232 12.816 24.888 12.144 24.888C11.68 24.888 11.24 25.008 10.824 25.248C10.424 25.472 10.104 25.816 9.864 26.28C9.592 26.808 9.456 27.608 9.456 28.68ZM26.2502 31.68C26.2502 32.08 26.0902 32.456 25.7702 32.808C25.4502 33.144 25.0982 33.312 24.7142 33.312C24.2662 33.312 23.8582 33.192 23.4902 32.952C23.1222 32.696 22.9382 32.376 22.9382 31.992C22.9382 31.384 23.0502 30.936 23.2742 30.648C23.5142 30.36 23.8662 30.216 24.3302 30.216C24.8742 30.216 25.3302 30.352 25.6982 30.624C26.0662 30.88 26.2502 31.232 26.2502 31.68ZM31.7964 28.68C31.7964 27.784 31.8044 27.104 31.8204 26.64L31.8444 24.36C31.8444 23.432 31.8204 22.416 31.7724 21.312C31.7564 20.976 31.7004 20.512 31.6044 19.92C31.4764 19.024 31.4124 18.352 31.4124 17.904C31.4124 17.168 31.7804 16.8 32.5164 16.8C32.9804 16.8 33.3084 16.928 33.5004 17.184C33.7084 17.424 33.8524 17.808 33.9324 18.336C34.0924 19.44 34.1724 20.736 34.1724 22.224C34.1724 22.672 34.1564 23.344 34.1244 24.24C34.4284 23.76 34.8204 23.384 35.3004 23.112C35.7964 22.84 36.2844 22.704 36.7644 22.704C38.1564 22.704 39.3564 23.28 40.3644 24.432C40.6364 24.832 40.8764 25.312 41.0844 25.872C41.3084 26.416 41.4204 26.888 41.4204 27.288C41.4204 27.992 41.3404 28.64 41.1804 29.232C41.0364 29.824 40.7724 30.4 40.3884 30.96C40.0044 31.52 39.5164 31.976 38.9244 32.328C38.3484 32.68 37.6764 32.856 36.9084 32.856C36.2364 32.856 35.6284 32.72 35.0844 32.448C34.5564 32.176 34.1324 31.816 33.8124 31.368C33.7324 31.768 33.5564 32.168 33.2844 32.568C33.0124 32.952 32.7004 33.144 32.3484 33.144C32.0604 33.144 31.8204 33.072 31.6284 32.928C31.4364 32.768 31.3404 32.536 31.3404 32.232C31.3404 32.008 31.3884 31.728 31.4844 31.392C31.5804 30.928 31.6524 30.504 31.7004 30.12C31.7644 29.72 31.7964 29.24 31.7964 28.68ZM36.3084 30.864C37.0924 30.864 37.7484 30.592 38.2764 30.048C38.8044 29.488 39.0684 28.736 39.0684 27.792C39.0684 26.928 38.8364 26.184 38.3724 25.56C38.2124 25.352 37.9804 25.184 37.6764 25.056C37.3884 24.928 37.1004 24.864 36.8124 24.864C36.1404 24.864 35.5724 25.064 35.1084 25.464C34.6444 25.848 34.3804 26.384 34.3164 27.072C34.2524 28 34.2204 28.8 34.2204 29.472C34.4124 29.84 34.7004 30.168 35.0844 30.456C35.4844 30.728 35.8924 30.864 36.3084 30.864Z" fill="white"/>
</svg>
