<svg width="75" height="50" viewBox="0 0 75 50" fill="none" xmlns="http://www.w3.org/2000/svg">
<rect width="75" height="50" rx="6" fill="black"/>
<path d="M27.464 15.968C27.464 16.1813 27.4107 16.768 27.304 17.728C27.0693 20.0747 26.952 22.4533 26.952 24.864C26.952 26.976 26.984 28.5867 27.048 29.696C27.112 30.8053 27.272 31.6587 27.528 32.256C27.784 32.832 28.1787 33.12 28.712 33.12C29.736 33.12 30.248 33.4613 30.248 34.144C30.248 34.592 30.024 34.976 29.576 35.296C29.128 35.5947 28.6373 35.744 28.104 35.744C27.464 35.744 26.8667 35.5947 26.312 35.296C25.7573 34.9973 25.32 34.5387 25 33.92C24.552 34.5813 23.9013 35.1147 23.048 35.52C22.216 35.904 21.4053 36.096 20.616 36.096C19.4 36.096 18.3227 35.84 17.384 35.328C16.4453 34.816 15.72 34.1227 15.208 33.248C14.696 32.352 14.44 31.3707 14.44 30.304C14.44 29.28 14.5573 28.2987 14.792 27.36C15.048 26.4 15.3893 25.6107 15.816 24.992C16.392 24.1813 17.16 23.5413 18.12 23.072C19.1013 22.5813 20.0613 22.336 21 22.336C21.576 22.336 22.12 22.4533 22.632 22.688C23.144 22.9013 23.592 23.168 23.976 23.488C23.976 22.0587 23.9653 21.1627 23.944 20.8V20.128C23.944 18.144 24.072 16.6933 24.328 15.776C24.5627 14.88 25.128 14.432 26.024 14.432C26.5147 14.432 26.8773 14.5387 27.112 14.752C27.3467 14.9653 27.464 15.3707 27.464 15.968ZM17.608 30.24C17.608 31.2213 17.8853 32.0107 18.44 32.608C19.016 33.2053 19.6987 33.504 20.488 33.504C21.6187 33.504 22.4507 33.152 22.984 32.448C23.5387 31.744 23.816 30.8373 23.816 29.728L23.784 26.56C22.952 25.6427 22.088 25.184 21.192 25.184C20.5733 25.184 19.9867 25.344 19.432 25.664C18.8987 25.9627 18.472 26.4213 18.152 27.04C17.7893 27.744 17.608 28.8107 17.608 30.24ZM40.0003 34.24C40.0003 34.7733 39.7869 35.2747 39.3603 35.744C38.9336 36.192 38.4643 36.416 37.9523 36.416C37.3549 36.416 36.8109 36.256 36.3203 35.936C35.8296 35.5947 35.5843 35.168 35.5843 34.656C35.5843 33.8453 35.7336 33.248 36.0323 32.864C36.3523 32.48 36.8216 32.288 37.4403 32.288C38.1656 32.288 38.7736 32.4693 39.2643 32.832C39.7549 33.1733 40.0003 33.6427 40.0003 34.24ZM47.3952 30.24C47.3952 29.0453 47.4059 28.1387 47.4272 27.52L47.4592 24.48C47.4592 23.2427 47.4272 21.888 47.3632 20.416C47.3419 19.968 47.2672 19.3493 47.1392 18.56C46.9686 17.3653 46.8832 16.4693 46.8832 15.872C46.8832 14.8907 47.3739 14.4 48.3552 14.4C48.9739 14.4 49.4112 14.5707 49.6672 14.912C49.9446 15.232 50.1366 15.744 50.2432 16.448C50.4566 17.92 50.5633 19.648 50.5633 21.632C50.5633 22.2293 50.5419 23.1253 50.4992 24.32C50.9046 23.68 51.4272 23.1787 52.0672 22.816C52.7286 22.4533 53.3792 22.272 54.0192 22.272C55.8753 22.272 57.4753 23.04 58.8193 24.576C59.1819 25.1093 59.5019 25.7493 59.7793 26.496C60.0779 27.2213 60.2273 27.8507 60.2273 28.384C60.2273 29.3227 60.1206 30.1867 59.9073 30.976C59.7153 31.7653 59.3633 32.5333 58.8513 33.28C58.3393 34.0267 57.6886 34.6347 56.8993 35.104C56.1313 35.5733 55.2353 35.808 54.2113 35.808C53.3153 35.808 52.5046 35.6267 51.7793 35.264C51.0752 34.9013 50.5099 34.4213 50.0833 33.824C49.9766 34.3573 49.7419 34.8907 49.3793 35.424C49.0166 35.936 48.6006 36.192 48.1312 36.192C47.7472 36.192 47.4272 36.096 47.1712 35.904C46.9152 35.6907 46.7872 35.3813 46.7872 34.976C46.7872 34.6773 46.8512 34.304 46.9792 33.856C47.1072 33.2373 47.2032 32.672 47.2672 32.16C47.3526 31.6267 47.3952 30.9867 47.3952 30.24ZM53.4113 33.152C54.4566 33.152 55.3312 32.7893 56.0352 32.064C56.7393 31.3173 57.0913 30.3147 57.0913 29.056C57.0913 27.904 56.7819 26.912 56.1632 26.08C55.9499 25.8027 55.6406 25.5787 55.2353 25.408C54.8513 25.2373 54.4673 25.152 54.0833 25.152C53.1873 25.152 52.4299 25.4187 51.8112 25.952C51.1926 26.464 50.8406 27.1787 50.7552 28.096C50.6699 29.3333 50.6272 30.4 50.6272 31.296C50.8832 31.7867 51.2673 32.224 51.7793 32.608C52.3126 32.9707 52.8566 33.152 53.4113 33.152Z" fill="white"/>
</svg>
